<svg xmlns="http://www.w3.org/2000/svg" width="400" height="214" viewBox="0 0 400 214" role="img" aria-label="1092 contributions in the last 30 days">
<g font-family="-apple-system,BlinkMacSystemFont,'Segoe UI',Helvetica,Arial,sans-serif">
<text x="4" y="22" font-size="11" letter-spacing="1.2" fill="#8d96a0">RECENT ACTIVITY</text>
<text x="396" y="22" font-size="11" text-anchor="end" fill="#8d96a0">last 30 days</text>
<text x="4" y="68" fill="#e6edf3"><tspan font-size="40" font-weight="600">1092</tspan><tspan dx="8" font-size="14" fill="#8d96a0">contributions</tspan></text>
<text x="4" y="96" font-size="12" fill="#8d96a0"><tspan fill="#e6edf3" font-weight="600">697</tspan> this week  ·  <tspan fill="#e6edf3" font-weight="600">30</tspan>-day streak  ·  active <tspan fill="#e6edf3" font-weight="600">30</tspan>/30 days</text>
<rect x="6.09" y="177.63" width="8.89" height="8.37" rx="1.5" fill="#3fb950"><title>Sep 5: 24 contributions</title></rect>
<rect x="19.16" y="179.37" width="8.89" height="6.63" rx="1.5" fill="#3fb950"><title>Sep 6: 19 contributions</title></rect>
<rect x="32.22" y="180.42" width="8.89" height="5.58" rx="1.5" fill="#3fb950"><title>Sep 7: 16 contributions</title></rect>
<rect x="45.29" y="180.07" width="8.89" height="5.93" rx="1.5" fill="#3fb950"><title>Sep 8: 17 contributions</title></rect>
<rect x="58.36" y="183.21" width="8.89" height="2.79" rx="1.5" fill="#3fb950"><title>Sep 9: 8 contributions</title></rect>
<rect x="71.42" y="182.16" width="8.89" height="3.84" rx="1.5" fill="#3fb950"><title>Sep 10: 11 contributions</title></rect>
<rect x="84.49" y="183.50" width="8.89" height="2.50" rx="1.5" fill="#3fb950"><title>Sep 11: 6 contributions</title></rect>
<rect x="97.56" y="183.50" width="8.89" height="2.50" rx="1.5" fill="#3fb950"><title>Sep 12: 2 contributions</title></rect>
<rect x="110.62" y="183.50" width="8.89" height="2.50" rx="1.5" fill="#3fb950"><title>Sep 13: 4 contributions</title></rect>
<rect x="123.69" y="181.12" width="8.89" height="4.88" rx="1.5" fill="#3fb950"><title>Sep 14: 14 contributions</title></rect>
<rect x="136.76" y="181.12" width="8.89" height="4.88" rx="1.5" fill="#3fb950"><title>Sep 15: 14 contributions</title></rect>
<rect x="149.82" y="178.68" width="8.89" height="7.32" rx="1.5" fill="#3fb950"><title>Sep 16: 21 contributions</title></rect>
<rect x="162.89" y="180.77" width="8.89" height="5.23" rx="1.5" fill="#3fb950"><title>Sep 17: 15 contributions</title></rect>
<rect x="175.96" y="173.45" width="8.89" height="12.55" rx="1.5" fill="#3fb950"><title>Sep 18: 36 contributions</title></rect>
<rect x="189.02" y="172.75" width="8.89" height="13.25" rx="1.5" fill="#3fb950"><title>Sep 19: 38 contributions</title></rect>
<rect x="202.09" y="181.12" width="8.89" height="4.88" rx="1.5" fill="#3fb950"><title>Sep 20: 14 contributions</title></rect>
<rect x="215.16" y="183.50" width="8.89" height="2.50" rx="1.5" fill="#3fb950"><title>Sep 21: 2 contributions</title></rect>
<rect x="228.22" y="183.21" width="8.89" height="2.79" rx="1.5" fill="#3fb950"><title>Sep 22: 8 contributions</title></rect>
<rect x="241.29" y="182.86" width="8.89" height="3.14" rx="1.5" fill="#3fb950"><title>Sep 23: 9 contributions</title></rect>
<rect x="254.36" y="180.07" width="8.89" height="5.93" rx="1.5" fill="#3fb950"><title>Sep 24: 17 contributions</title></rect>
<rect x="267.42" y="183.50" width="8.89" height="2.50" rx="1.5" fill="#3fb950"><title>Sep 25: 3 contributions</title></rect>
<rect x="280.49" y="182.51" width="8.89" height="3.49" rx="1.5" fill="#3fb950"><title>Sep 26: 10 contributions</title></rect>
<rect x="293.56" y="155.66" width="8.89" height="30.34" rx="1.5" fill="#3fb950"><title>Sep 27: 87 contributions</title></rect>
<rect x="306.62" y="132.99" width="8.89" height="53.01" rx="1.5" fill="#3fb950"><title>Sep 28: 152 contributions</title></rect>
<rect x="319.69" y="183.50" width="8.89" height="2.50" rx="1.5" fill="#3fb950"><title>Sep 29: 1 contribution</title></rect>
<rect x="332.76" y="183.50" width="8.89" height="2.50" rx="1.5" fill="#3fb950"><title>Sep 30: 7 contributions</title></rect>
<rect x="345.82" y="162.29" width="8.89" height="23.71" rx="1.5" fill="#3fb950"><title>Oct 1: 68 contributions</title></rect>
<rect x="358.89" y="118.00" width="8.89" height="68.00" rx="1.5" fill="#3fb950"><title>Oct 2: 195 contributions</title></rect>
<rect x="371.96" y="121.49" width="8.89" height="64.51" rx="1.5" fill="#3fb950"><title>Oct 3: 185 contributions</title></rect>
<rect x="385.02" y="154.96" width="8.89" height="31.04" rx="1.5" fill="#3fb950"><title>Oct 4: 89 contributions</title></rect>
<text x="4" y="206" font-size="10" fill="#8d96a0">Sep 5</text>
<text x="396" y="206" font-size="10" text-anchor="end" fill="#8d96a0">Oct 4</text>
</g>
</svg>
